<?xml version="1.0" encoding="UTF-8" standalone="no"?>
<svg
   xmlns:dc="http://purl.org/dc/elements/1.1/"
   xmlns:cc="http://creativecommons.org/ns#"
   xmlns:rdf="http://www.w3.org/1999/02/22-rdf-syntax-ns#"
   xmlns:svg="http://www.w3.org/2000/svg"
   xmlns="http://www.w3.org/2000/svg"
   xmlns:sodipodi="http://sodipodi.sourceforge.net/DTD/sodipodi-0.dtd"
   xmlns:inkscape="http://www.inkscape.org/namespaces/inkscape"
   width="1754.006"
   height="516.81189"
   viewBox="-18.458 6.58 134.112 39.510911"
   id="svg2"
   version="1.1"
   inkscape:version="0.91 r13725"
   sodipodi:docname="mysql.svg">
  <metadata
     id="metadata18">
    <rdf:RDF>
      <cc:Work
         rdf:about="">
        <dc:format>image/svg+xml</dc:format>
        <dc:type
           rdf:resource="http://purl.org/dc/dcmitype/StillImage" />
        <dc:title></dc:title>
      </cc:Work>
    </rdf:RDF>
  </metadata>
  <defs
     id="defs16" />
  <sodipodi:namedview
     pagecolor="#ffffff"
     bordercolor="#666666"
     borderopacity="1"
     objecttolerance="10"
     gridtolerance="10"
     guidetolerance="10"
     inkscape:pageopacity="0"
     inkscape:pageshadow="2"
     inkscape:window-width="1130"
     inkscape:window-height="742"
     id="namedview14"
     showgrid="false"
     inkscape:zoom="0.13995495"
     inkscape:cx="1685.8869"
     inkscape:cy="-105.84071"
     inkscape:window-x="0"
     inkscape:window-y="0"
     inkscape:window-maximized="0"
     inkscape:current-layer="svg2"
     fit-margin-top="0.3"
     fit-margin-left="0"
     fit-margin-right="0"
     fit-margin-bottom="0.1" />
  <path
     d="m -21.780497,4.5246441 191.150997,0 0,132.4899959 -191.150997,0 0,-132.4899959 z"
     id="path4"
     inkscape:connector-curvature="0"
     style="fill:none" />
  <path
     d="m 13.786,37.974063 -5.1750002,0 c -0.183,-8.735032 -0.687,-16.947063 -1.511,-24.642063 l -0.046,0 -7.87900128,24.642063 -3.94000002,0 -7.8319995,-24.642063 -0.045,0 c -0.581,7.388 -0.946999,15.602029 -1.098999,24.642063 l -4.717,0 C -18.154,26.981016 -17.39,16.675 -16.169,7.0549998 l 6.4139985,0 7.4650001,22.7190352 0.046,0 7.5109999,-22.7190352 6.1370015,0 C 12.748,18.323 13.542,28.630027 13.786,37.974063 M 36.229,15.162 c -2.107,11.434014 -4.887,19.742063 -8.337,24.928063 -2.688,3.992 -5.633,5.99 -8.84,5.99 -0.855,0 -1.91,-0.258 -3.16,-0.77 l 0,-2.757 c 0.611,0.088 1.328,0.138 2.152,0.138 1.498,0 2.702,-0.412 3.62,-1.238 1.098,-1.006 1.647,-2.137 1.647,-3.388 0,-0.858 -0.428,-2.612 -1.282,-5.268009 L 16.35,15.161 l 5.084,0 4.076,13.190025 c 0.916,2.99502 1.298,5.086034 1.145,6.277038 C 28.884,28.675028 30.441,22.184 31.328,15.16 l 4.901,0 0,0.002 z"
     id="path6"
     inkscape:connector-curvature="0"
     style="fill:#5d87a1" />
  <path
     d="m 105.11399,37.974063 -14.69999,0 0,-30.9190631 4.945,0 0,27.1130631 9.75499,0 0,3.806 z m -18.54799,0.747 -5.684,-2.805 c 0.504,-0.414 0.986,-0.862 1.42,-1.381 2.416,-2.838016 3.621,-7.035043 3.621,-12.594063 0,-10.229 -4.014,-15.3460001 -12.045,-15.3460001 -3.938,0 -7.01,1.298 -9.207,3.8950001 -2.414,2.84 -3.619,7.022 -3.619,12.551 0,5.435026 1.068,9.422052 3.205,11.951063 1.955,2.291 4.902,3.438 8.843,3.438 1.47,0 2.819,-0.18 4.048,-0.543 l 7.4,4.308 2.018,-3.474 z M 68.153,31.787048 C 66.901,29.773035 66.275,26.539014 66.275,22.08 c 0,-7.785 2.365,-11.682 7.1,-11.682 2.475,0 4.289,0.932 5.449,2.792 1.25,2.017 1.879,5.222 1.879,9.619 0,7.84904 -2.367,11.774063 -7.099,11.774063 -2.476,10e-4 -4.29,-0.928003 -5.451,-2.796015 m -9.256,-2.383016 c 0,2.622017 -0.962,4.773031 -2.884,6.458031 -1.924,1.678 -4.504,2.519 -7.737,2.519 -3.024,0 -5.956,-0.966 -8.794,-2.888 l 1.329,-2.655008 c 2.442,1.223008 4.653,1.831008 6.638,1.831008 1.863,0 3.319,-0.413 4.375,-1.232004 1.055,-0.822006 1.684,-1.975013 1.684,-3.433023 0,-1.837012 -1.281,-3.407022 -3.631,-4.722031 C 47.71,24.092 43.376,21.604 43.376,21.604 c -2.349,-1.712 -3.525,-3.55 -3.525,-6.578 0,-2.506 0.877,-4.529 2.632,-6.0679998 1.757,-1.5450003 4.024,-2.3150003 6.803,-2.3150003 2.87,0 5.479,0.769 7.829,2.2910003 L 55.923,11.59 c -2.01,-0.854 -3.994,-1.281 -5.951,-1.281 -1.585,0 -2.809,0.381 -3.66,1.146 -0.858,0.762 -1.387,1.737 -1.387,2.933 0,1.828 1.308,3.418 3.722,4.759 2.196,1.192 6.638,3.723 6.638,3.723 2.409,1.709001 3.612,3.530013 3.612,6.534032"
     id="path8"
     inkscape:connector-curvature="0"
     style="fill:#f8981d" />
  <path
     d="m 114.87999,37.969063 0.774,0 0,-3.788 -1.161,0 -0.947,2.585 -1.029,-2.585 -1.118,0 0,3.788 0.731,0 0,-2.882 0.041,0 1.078,2.882 0.557,0 1.074,-2.882 0,2.882 z m -6.235,0 0.819,0 0,-3.146 1.072,0 0,-0.643 -3.008,0 0,0.643 1.115,0 0.002,3.146 z"
     id="path12"
     inkscape:connector-curvature="0"
     style="fill:#f8981d" />
</svg>
